<?xml version="1.0" standalone="no"?>
<!DOCTYPE svg PUBLIC "-//W3C//DTD SVG 1.1//EN" "http://www.w3.org/Graphics/SVG/1.1/DTD/svg11.dtd" >
<svg xmlns="http://www.w3.org/2000/svg">
<metadata>
Created by FontForge 20120731 at Sat Mar  5 17:06:07 2016
 By Ads
</metadata>
<defs>
<font id="iconfont" horiz-adv-x="1024" >
  <font-face 
    font-family="iconfont"
    font-weight="500"
    font-stretch="normal"
    units-per-em="1024"
    panose-1="2 0 6 3 0 0 0 0 0 0"
    ascent="896"
    descent="-128"
    x-height="792"
    bbox="0 -212 1084 896"
    underline-thickness="50"
    underline-position="-100"
    unicode-range="U+0078-E618"
  />
<missing-glyph horiz-adv-x="374" 
d="M34 0v682h272v-682h-272zM68 34h204v614h-204v-614z" />
    <glyph glyph-name=".notdef" horiz-adv-x="374" 
d="M34 0v682h272v-682h-272zM68 34h204v614h-204v-614z" />
    <glyph glyph-name=".null" horiz-adv-x="0" 
 />
    <glyph glyph-name="nonmarkingreturn" horiz-adv-x="341" 
 />
    <glyph glyph-name="x" unicode="x" horiz-adv-x="1001" 
d="M281 543q-27 -1 -53 -1h-83q-18 0 -36.5 -6t-32.5 -18.5t-23 -32t-9 -45.5v-76h912v41q0 16 -0.5 30t-0.5 18q0 13 -5 29t-17 29.5t-31.5 22.5t-49.5 9h-133v-97h-438v97zM955 310v-52q0 -23 0.5 -52t0.5 -58t-10.5 -47.5t-26 -30t-33 -16t-31.5 -4.5q-14 -1 -29.5 -0.5
t-29.5 0.5h-32l-45 128h-439l-44 -128h-29h-34q-20 0 -45 1q-25 0 -41 9.5t-25.5 23t-13.5 29.5t-4 30v167h911zM163 247q-12 0 -21 -8.5t-9 -21.5t9 -21.5t21 -8.5q13 0 22 8.5t9 21.5t-9 21.5t-22 8.5zM316 123q-8 -26 -14 -48q-5 -19 -10.5 -37t-7.5 -25t-3 -15t1 -14.5
t9.5 -10.5t21.5 -4h37h67h81h80h64h36q23 0 34 12t2 38q-5 13 -9.5 30.5t-9.5 34.5q-5 19 -11 39h-368zM336 498v228q0 11 2.5 23t10 21.5t20.5 15.5t34 6h188q31 0 51.5 -14.5t20.5 -52.5v-227h-327z" />
    <glyph glyph-name="uniE600" unicode="&#xe600;" 
d="M923 338q-10 0 -17 -7.5t-7 -17.5v-361q0 -21 -14.5 -35.5t-34.5 -14.5h-689q-20 0 -34.5 14.5t-14.5 35.5v696q0 21 14.5 35.5t34.5 14.5h436q10 0 17 7t7 17.5t-7 18t-17 7.5h-436q-40 0 -68.5 -29.5t-28.5 -70.5v-696q0 -27 13 -50t35.5 -36.5t48.5 -13.5h689
q20 0 38 8t31 21.5t20.5 32t7.5 38.5v361q0 10 -7 17.5t-17 7.5zM952 740q-1 2 -3.5 3.5t-4.5 2.5t-4 1.5t-4.5 0.5t-5 -0.5t-4.5 -1.5t-4 -2.5t-4 -3.5l-677 -658q-7 -8 -7 -18t7 -17.5t17 -7.5q2 0 4.5 0.5t4.5 1.5t4 2.5t4 2.5l677 659q4 4 5.5 8.5t1.5 9t-1.5 9.5
t-5.5 8z" />
    <glyph glyph-name="uniE601" unicode="&#xe601;" 
d="M512 339l249 -249q5 -5 11 -7.5t12 -2.5t12 2.5t10 7.5q10 9 10 22t-10 23l-249 249l249 249q5 5 7.5 11t2.5 12t-2.5 12t-7.5 10q-3 4 -6.5 6t-7.5 3t-8 1t-8 -1t-8 -3t-7 -6l-249 -249l-249 249q-10 10 -23 10t-22 -10q-5 -4 -7.5 -10t-2.5 -12q0 -13 10 -23l249 -249
l-249 -249q-10 -10 -10 -23t9.5 -22.5t22.5 -9.5t23 10z" />
    <glyph glyph-name="uniE602" unicode="&#xe602;" 
d="M710 531h-17v-428h-56v428h-94v-428h-56v428h-94v-428h-56v428h-36h-45h-32v-448q0 -20 10.5 -37t28 -27t38.5 -10h409q32 0 54.5 22t22.5 52v448q0 1 -9 1t-30.5 -0.5t-37.5 -0.5zM824 665h-168v46q0 19 -26 33.5t-49 14.5h-150q-24 0 -49.5 -14.5t-25.5 -33.5v-46h-169
q-7 0 -14.5 -3t-12.5 -8t-8 -11.5t-3 -14.5q0 -16 11.5 -27t26.5 -11h637q10 0 19 5t14 14t5 19q0 25 -24 35q-7 2 -14 2zM581 665h-150v19h150v-19z" />
    <glyph glyph-name="uniE603" unicode="&#xe603;" 
d="M620 641v-37q60 -23 106 -67t72.5 -104.5t26.5 -127.5q0 -87 -42.5 -160.5t-116 -116t-160 -42.5t-159.5 42.5t-116 116t-43 160.5q0 101 57 182.5t148 116.5v37q-69 -24 -123 -73t-85 -117.5t-31 -145.5q0 -96 47.5 -177.5t128.5 -129t176.5 -47.5t177 47.5t128.5 129
t47 177.5q0 77 -30.5 145.5t-84.5 117.5t-124 73zM512 751q7 0 12 -5t5 -12v-446q0 -4 -2 -8t-6 -6.5t-9 -2.5q-3 0 -6 1.5t-5.5 3.5t-4 5.5t-1.5 6.5v446q0 7 5 12t12 5z" />
    <glyph glyph-name="uniE604" unicode="&#xe604;" 
d="M45 595h948q5 0 10 1.5t9 4.5t7 7t4.5 8.5t1.5 10.5q0 8 -4.5 15.5t-11.5 11.5t-16 4h-948q-9 0 -16 -4t-11.5 -11.5t-4.5 -15.5q0 -7 2.5 -13t7 -10t10 -6.5t12.5 -2.5zM993 -37h-948q-13 0 -22.5 -9.5t-9.5 -22.5t9.5 -22t22.5 -9h948q13 0 22.5 9t9.5 22q0 9 -4.5 16
t-11.5 11.5t-16 4.5zM993 311h-948q-13 0 -22.5 -9.5t-9.5 -22.5t9.5 -22.5t22.5 -9.5h948q7 0 12.5 2.5t10 7t7 10t2.5 12.5q0 13 -9.5 22.5t-22.5 9.5z" />
    <glyph glyph-name="uniE605" unicode="&#xe605;" 
d="M853 363q6 0 11 2.5t8 7.5t3 11q0 9 -6.5 15t-15.5 6h-682q-9 0 -15.5 -6t-6.5 -15q0 -4 2 -8t4.5 -7t6.5 -4.5t9 -1.5h682zM491 43q0 -6 2.5 -11t7.5 -8t11 -3q4 0 8 2t7 4.5t4.5 6.5t1.5 9v682q0 6 -2.5 11t-7.5 8t-11 3q-9 0 -15 -6.5t-6 -15.5v-682z" />
    <glyph glyph-name="uniE606" unicode="&#xe606;" 
d="M785 -127h-546q-45 0 -77.5 32t-32.5 78v271q0 11 2.5 22t6.5 21t10 18.5t13.5 16t16.5 13.5t18.5 10.5t20.5 6.5t22 2v92q0 113 79 190.5t194 77.5q56 0 106.5 -20.5t87 -56t58 -85.5t21.5 -106v-92q30 0 55 -14.5t40 -40t15 -55.5v-271q0 -22 -9 -42.5t-23.5 -35.5
t-35 -23.5t-42.5 -8.5zM737 456q0 44 -18 85t-48.5 71t-72 47.5t-86.5 17.5q-92 0 -158.5 -65t-66.5 -156v-92h450v92zM848 254q0 15 -9.5 29.5t-24.5 24t-29 9.5h-546q-22 0 -42.5 -20t-20.5 -43v-271q0 -23 20.5 -44.5t42.5 -21.5h546q14 0 29 10t24.5 25.5t9.5 30.5v271z
M526 -19h-28q-4 0 -7 1.5t-5 5t-2 6.5v228q0 3 1.5 5.5t3 4.5t4 3t5.5 1h28q3 0 5.5 -1t4 -3t3 -4.5t1.5 -5.5v-228q0 -2 -1 -4t-2 -3.5t-3 -3t-4 -2t-4 -0.5z" />
    <glyph glyph-name="uniE607" unicode="&#xe607;" 
d="M795 578q-24 33 -60 70q-37 37 -70 61q-24 17 -39 23t-25 6h-346q-15 0 -28 -7.5t-20.5 -20.5t-7.5 -28v-603q0 -23 16.5 -39.5t39.5 -16.5h514q23 0 39.5 16.5t16.5 39.5v436q0 23 -30 63zM703 616q8 -8 15 -15.5t13.5 -14.5t12 -14t10.5 -13h-108v108q13 -10 27 -22.5
t30 -28.5v0zM780 79q-1 -10 -11 -11h-514q-5 0 -8 3t-3 8v603q0 3 1.5 5.5t4 4t5.5 1.5h346v-156q0 -2 0.5 -4.5t1.5 -4.5t2 -3.5t2.5 -3t3.5 -3t4 -2.5h4q2 -1 5 -1h156v-436zM707 154l-126 126q34 42 34 96q0 43 -21 78.5t-56.5 56.5t-77.5 21t-78 -21t-56.5 -56.5
t-20.5 -78t20.5 -78t56.5 -56.5t78 -21q51 0 86 25l127 -126q9 -9 17 0l17 16q9 9 0 18zM460 275q-42 0 -72 29.5t-30 71.5q0 28 14 51.5t37 37t50.5 13.5t51 -13.5t37 -37t13.5 -51.5q0 -42 -29.5 -71.5t-71.5 -29.5z" />
    <glyph glyph-name="uniE608" unicode="&#xe608;" 
d="M736 364q40 0 68 28t28 68t-28 68t-68 28t-68 -28t-28 -68t28 -68t68 -28zM904 684h-784q-23 0 -39.5 -16.5t-16.5 -40.5v-654q0 -24 16.5 -40.5t39.5 -16.5h784q23 0 39.5 16.5t16.5 40.5v654q0 24 -16.5 40.5t-39.5 16.5zM698 289q-11 12 -26 12q-7 0 -12.5 -3
t-12.5 -8l-38 -32q-13 -9 -23 -9q-13 0 -22 8l-4 3l-4 5l-108 116q-13 15 -33 15t-34 -15l-253 -305v521q1 5 3 9t5.5 7t8 5t9.5 2h716q10 0 17.5 -7t7.5 -17l1 -521z" />
    <glyph glyph-name="uniE609" unicode="&#xe609;" 
d="M954 -37q-15 37 -35 64t-43 41.5t-43 22t-44 11.5q-66 12 -111 36q0 24 -1 74q26 31 45 68.5t29.5 77.5t10.5 77q0 88 -27.5 157.5t-85.5 112.5t-139 43q-31 0 -59 -6.5t-51 -18.5t-43 -29t-35.5 -38t-27.5 -46t-20 -53t-12 -58.5t-4 -63.5q0 -56 22.5 -115.5
t61.5 -106.5q0 -68 -1 -75q-17 -9 -48 -19.5t-63 -16.5q-24 -4 -44 -11.5t-43 -22t-43 -41.5t-34 -64q-11 -28 6 -53q51 -71 438 -71q101 0 184 5t158 21.5t95 44.5q17 25 7 53zM314 435q0 112 51 184t145 72q48 0 85.5 -20t61.5 -55t36.5 -81t12.5 -100q0 -34 -10 -70.5
t-28 -69.5t-42 -59t-54.5 -41.5t-61.5 -15.5q-52 0 -98 40t-72 99t-26 117zM509.5 -105q-95.5 0 -171 5t-114 11.5t-64.5 14t-32 11.5t-8 6q21 55 50.5 75.5t69.5 27.5q35 6 71 18t58 24l27 15q1 35 2 58q54 -38 112 -38t112 38l1 -58l27 -15q53 -28 129 -42
q12 -2 21.5 -4.5t21.5 -7t21.5 -12t20 -18t19.5 -26t17 -35.5q-2 -2 -8 -5.5t-32.5 -11.5t-65 -14.5t-114 -11.5t-171 -5z" />
    <glyph glyph-name="uniE60A" unicode="&#xe60a;" 
d="M939 551q-11 28 -27 44l-178 178q-8 8 -19 15t-25 12q-27 12 -50 12h-494q-30 0 -51.5 -21.5t-21.5 -51.5v-878q0 -30 21.5 -51.5t51.5 -21.5h732q15 0 28.5 6t23 15.5t15.5 23t6 28.5v640q0 23 -12 50zM682 722l179 -179q7 -7 12 -23h-215v214q17 -5 24 -12zM878 -139
h-732v878h439v-238q0 -11 4 -21t12 -18q16 -16 39 -16h238v-585z" />
    <glyph glyph-name="uniE60B" unicode="&#xe60b;" 
d="M83 262l90 70l211 -205q11 14 31.5 38t83 93t125 131.5t150.5 139t167 129.5l25 -64q-51 -36 -119 -106.5t-138.5 -160t-139.5 -201t-115 -216.5z" />
    <glyph glyph-name="uniE60C" unicode="&#xe60c;" 
d="M973 288q0 3 -1 6t-2.5 6t-3.5 5v1q-74 108 -194 172t-260 64t-260 -63.5t-194 -172.5v-1q-3 -3 -5 -7.5t-2 -9.5q0 -10 7 -17v-1q49 -71 118.5 -124t156 -82.5t179.5 -29.5q140 0 260 63.5t194 172.5v1q7 7 7 17zM512 85q-123 0 -229 54.5t-174 148.5q68 94 174 148.5
t229 54.5t229 -54.5t174 -148.5q-68 -94 -174 -148.5t-229 -54.5zM512 426q-57 0 -97.5 -40.5t-40.5 -97.5t40.5 -97.5t97.5 -40.5t97.5 40.5t40.5 97.5t-40.5 97.5t-97.5 40.5zM512 201q-24 0 -44 11.5t-31.5 31.5t-11.5 44q0 36 25.5 61.5t61.5 25.5q24 0 44 -11.5
t31.5 -31.5t11.5 -44q0 -36 -25.5 -61.5t-61.5 -25.5z" />
    <glyph glyph-name="uniE60D" unicode="&#xe60d;" 
d="M512 638q-69 0 -141 -26t-124.5 -63.5t-95.5 -75t-65 -63.5l-22 -26q8 -10 23 -27.5t63 -61t97.5 -77t122.5 -61t142 -27.5q50 0 102 14t95 36.5t83 49.5t70 54t52.5 49.5t33.5 36.5l12 14l-44 48q-156 161 -321 197q-42 9 -83 9zM512 194q-55 0 -112.5 19.5t-105.5 52
t-81.5 60.5t-62.5 58q22 23 46.5 45t62.5 49.5t75.5 47.5t85 34t92.5 14q55 0 112.5 -19.5t105.5 -52t81.5 -60.5t62.5 -58q-29 -30 -62.5 -58t-81.5 -60.5t-105 -52t-113 -19.5zM443 379q0 -29 20 -49t49 -20t49 20t20 49t-20 49t-49 20q-14 0 -27 -5.5t-22 -14.5
t-14.5 -22t-5.5 -27zM787 618l128 127l-46 46l-141 -142q33 -16 59 -31zM232 153l-126 -125l46 -46l139 139q-6 3 -12 6.5t-12 6.5l-12 6q-6 3 -11.5 6.5t-11.5 6.5z" />
    <glyph glyph-name="uniE60E" unicode="&#xe60e;" 
d="M695 279h-617v43h616l-166 166l30 30l193 -193q10 -10 10 -25t-10 -25l-193 -193l-30 30zM512 734q-78 0 -150 -26.5t-130 -76t-97 -116.5l37 -21q52 92 143 145t197 53q107 0 197 -52.5t142.5 -143t52.5 -196.5t-52.5 -196.5t-142.5 -143t-197 -52.5q-109 0 -202.5 56.5
t-143.5 152.5l-38 -19q56 -107 159.5 -169.5t224.5 -62.5q89 0 169 34.5t138.5 92.5t92.5 138.5t34 168.5t-34 168.5t-92.5 138.5t-138.5 92.5t-169 34.5z" />
    <glyph glyph-name="uniE60F" unicode="&#xe60f;" 
d="M926 503q-19 48 -41 97.5t-40 83.5t-36 66q-10 19 -29.5 36.5t-28.5 23t-15 8.5l-3 2l-343 5v-31l335 -4q5 -3 11 -7.5t15 -11.5t17.5 -16.5t13.5 -19.5q69 -121 115 -243q14 -37 20 -69t4 -57.5t-12 -44.5q-7 -12 -17 -22t-23 -17t-30 -11q-37 -9 -160 1l-18 1l2 -18
q8 -75 10.5 -117.5t-2.5 -82.5t-20 -57q-18 -20 -57 -20q-33 0 -50 18q-13 13 -19 37.5t-7 41t0 43.5v13v11q-4 104 -124 156q-15 7 -30.5 12t-29 8.5t-23.5 5.5t-19 4v497h-164q-21 0 -35.5 -15t-14.5 -35v-426q0 -21 14.5 -35.5t35.5 -14.5h148q6 -1 15.5 -2.5t31 -6.5
t41 -12t42.5 -20t39.5 -28.5t28.5 -38.5t13 -50v-22q-1 -31 0 -50t9.5 -48t25.5 -46q27 -27 72 -27q27 0 46.5 7t33.5 22q28 32 31 108q1 50 -10 155q43 -3 77.5 -3t74.5 5q63 15 89 65q37 70 -10 196zM261 330h-133q-8 0 -13.5 5.5t-5.5 13.5v426q0 8 5.5 13.5t13.5 5.5
h133v-464z" />
    <glyph glyph-name="uniE610" unicode="&#xe610;" 
d="M960 -64h-896v384h64v-192h768v192h64v-384zM832 192h-64v576h-512v-576h-64v640h640v-640zM576 512v-256h-128v256h-128l192 192l192 -192h-128z" />
    <glyph glyph-name="uniE611" unicode="&#xe611;" 
d="M259 -53q-9 0 -14 7q-5 5 -4 12.5t7 12.5q35 28 117 27h417q35 0 54 20t35 73l66 263q2 14 2.5 27.5t-1 24.5t-4 20t-6 17t-7 13.5t-8.5 10.5q-8 10 -18.5 17t-22.5 10.5t-24 3.5h-162q-10 0 -15.5 9t0.5 18l67 101q12 24 17 47t2.5 44.5t-12.5 41.5q-7 13 -16.5 24.5
t-14 15.5t-6.5 5v1q-24 17 -41 12q-13 -4 -22.5 -16t-13.5 -23l-1 -1q-47 -99 -114 -164q-27 -26 -57 -46.5t-62 -34.5q-73 -32 -133 -29h-131q-2 -1 -4.5 -1t-8.5 -2t-12 -5q-21 -12 -21 -44v-1v-401q2 -33 24 -46q10 -6 21 -7l28 -1v74v372q0 3 1 6t2.5 5t3.5 4t5 2.5
t6 0.5q5 0 9 -2t6.5 -6.5t2.5 -9.5v-371v-94q0 -8 -5 -13q-3 -2 -6.5 -3.5t-6.5 -1.5l-47 2q-20 1 -39 12q-16 10 -27.5 28.5t-12.5 47.5v1v401q-1 40 22 64q8 8 18 13.5t19 7.5t13.5 2.5t8.5 0.5h131h1q52 -3 119 27q59 27 108 75q62 60 106 152q1 2 2.5 5.5t5 10t8.5 12.5
t11 12.5t14 11.5t17 7q35 11 73 -17q29 -22 48 -59q38 -77 -8 -166q0 -1 -1 -1v-1l-48 -74l128 1q56 0 93 -44q45 -53 31 -143q0 -1 -1 -1l-65 -264h-1q-17 -61 -44 -90t-79 -29h-417q-16 0 -33 -2t-35 -7t-27 -11q-5 -4 -11 -4zM224 483z" />
    <glyph glyph-name="uniE612" unicode="&#xe612;" 
d="M778 579l-361 186q-35 18 -93.5 -7.5t-81.5 -61.5q-12 -18 -12 -42l5 -420q0 -5 3 -10t8 -9.5t10 -7.5q7 -5 59.5 -37.5t110.5 -69t109.5 -68.5t52.5 -33q7 -4 16 -4q7 0 13 3q7 4 11 10t4 13v442q0 7 -4 13t-10 9l-329 183q9 18 45 37q32 16 55 7q315 -168 325 -173
q5 -3 6.5 -4.5t2 -3.5t0.5 -7v-419q0 -14 11.5 -21.5t25.5 -7.5q12 0 22 9t10 20v451q0 15 -14 23v0zM595 8l-335 209q-2 1 -4.5 3t-7 9t-4.5 15l-4 421v4q0 2 3 9.5t8.5 15.5t18.5 19t32 23q3 1 8 4t19 9t27.5 9.5t30 3.5t29.5 -6l354 -184q1 -1 2 -1.5t3 -2.5t3.5 -4
t3 -5.5t0.5 -7.5v-442q1 -3 0 -6t-6.5 -9.5t-16.5 -8.5q-3 0 -7.5 1t-12 8t-6.5 18v419q1 7 -6 12l-335 179q-3 1 -8 2.5t-20 0.5t-29 -9q-2 0 -5 -2t-11.5 -7t-16 -10.5t-15 -14t-11.5 -17.5l332 -187q2 -1 4 -2.5t5.5 -6.5t3.5 -10v-433q0 -2 0.5 -4t-1.5 -7t-8 -8
q0 -4 -8 -3q-5 1 -9 4z" />
    <glyph glyph-name="uniE613" unicode="&#xe613;" horiz-adv-x="1085" 
d="M964 896h-844q-49 0 -84.5 -35.5t-35.5 -84.5v-784q0 -49 35.5 -84.5t84.5 -35.5h844q32 0 60 16t44 44t16 60v784q0 63 -52 99q-31 21 -68 21zM241 836h602v-392q0 -4 -1 -8t-3 -7t-4.5 -6t-6 -5t-7.5 -3t-8 -1h-542q-8 0 -15 4t-11 11t-4 15v392zM1024 -8
q0 -25 -17.5 -42.5t-42.5 -17.5h-844q-25 0 -42.5 17.5t-17.5 42.5v784q0 24 17.5 42t42.5 18h61v-422q0 -25 17.5 -42.5t42.5 -17.5h602q13 0 24 4.5t19 13t13 19.5t5 23v422h60q12 0 23 -5t19 -13t13 -19t5 -23v-784zM693 535q12 0 21 8.5t9 21.5v120q0 6 -2.5 11.5
t-6.5 10t-9.5 6.5t-11.5 2q-13 0 -21.5 -8.5t-8.5 -21.5v-120q0 -8 4 -15t11 -11t15 -4z" />
    <glyph glyph-name="uniE614" unicode="&#xe614;" 
d="M512 -62q-73 0 -141 22.5t-122.5 64t-96 96t-64 123t-22.5 140.5q0 91 35.5 173.5t95 142t142 95t173 35.5t173.5 -35.5t142.5 -95t95 -142t35.5 -173t-35.5 -173.5t-95 -142.5t-142.5 -95t-173 -35.5zM512 815q-117 0 -216.5 -57.5t-157 -157t-57.5 -216.5t57.5 -216
t157 -157t216.5 -58t216 58t157 157t58 216t-58 216.5t-157 157t-216 57.5zM504 644h30v-357h-30v357zM435 398l104 -104l-21 -21l-104 104zM520 272l-20 23l119 104l20 -23zM281 377h30v-208h-30v208zM281 198h476v-29h-476v29zM727 377h30v-208h-30v208z" />
    <glyph glyph-name="uniE615" unicode="&#xe615;" 
d="M512 -62q-73 0 -141 22.5t-122.5 64t-96 96t-64 123t-22.5 140.5q0 91 35.5 173.5t95 142t142 95t173 35.5t173.5 -35.5t142.5 -95t95 -142t35.5 -173t-35.5 -173.5t-95 -142.5t-142.5 -95t-173 -35.5zM512 815q-117 0 -216.5 -57.5t-157 -157t-57.5 -216.5t57.5 -216
t157 -157t216.5 -58t216 58t157 157t58 216t-58 216.5t-157 157t-216 57.5zM504 629h30v-357h-30v357zM281 377h30v-208h-30v208zM281 198h476v-29h-476v29zM727 377h30v-208h-30v208zM400 540l119 104l119 -104l-19 -22l-100 87l-99 -88z" />
    <glyph glyph-name="uniE616" unicode="&#xe616;" 
d="M644 794q-99 27 -199 13.5t-189 -64.5q-184 -106 -238 -311q-14 -50 -17 -101.5t4 -100.5t23 -96.5t40.5 -89.5t57.5 -80t71.5 -68t85 -53.5t96.5 -36.5q66 -18 134 -18q142 0 266 76q9 5 11.5 15.5t-3 19.5t-16 11.5t-19.5 -3.5q-82 -50 -174.5 -63.5t-184.5 11.5
q-52 14 -99 39t-85 59t-68.5 74.5t-50.5 87.5t-30 96.5t-8.5 102.5t15.5 105q24 89 79.5 161.5t135.5 118.5t170 58t179 -12q45 -12 85.5 -32t76 -47.5t65.5 -61.5t53 -74q31 -53 46.5 -111t15.5 -118.5t-16 -119.5q-8 -32 -21 -62t-31 -59q-3 -6 -3.5 -12.5t3 -12.5
t9.5 -10q9 -5 19 -2.5t16 11.5q39 63 58 134q19 67 17 135.5t-18.5 131.5t-50.5 120.5t-79 104.5t-104.5 81.5t-127.5 52.5zM626 556h-76l-253 -253l252 -259h76l-252 259z" />
    <glyph glyph-name="uniE617" unicode="&#xe617;" 
d="M910 -4q-1 1 -5 3l-176 176l3 3l2 2q36 36 60.5 79t36 88.5t11.5 94t-11.5 94t-36 88.5t-60.5 79q-53 53 -122 81t-139 28t-139 -28t-123 -81q-71 -71 -96 -166t0 -190.5t96 -166.5q65 -65 150.5 -91.5t173 -11.5t159.5 69l181 -181l1 -1v-2l2 -1q1 -1 2 -1l1 -1
q5 -3 10 -3.5t10 1t9 5.5q7 7 7 17t-7 17zM239 207q-48 48 -73 110t-25 125t25 125t72.5 109.5t110 72.5t125 25t124.5 -25t110 -72q64 -64 86.5 -149.5t0 -171t-86.5 -149.5t-149.5 -86.5t-170.5 0t-149 86.5z" />
    <glyph glyph-name="uniE618" unicode="&#xe618;" 
d="M511 19q-99 0 -183 49t-132.5 132.5t-48.5 182.5v5v6v4q0 2 0.5 6t0.5 5l1 11h84l-128 128v-128v-37q0 -110 54 -203.5t147.5 -148t203.5 -54.5q70 0 133.5 22.5t115.5 63.5l-39 22q-94 -66 -209 -66zM916 383q0 66 -20.5 128t-58 111.5t-87.5 87t-111.5 58t-128.5 20.5
q-96 0 -179.5 -42t-140.5 -115l36 -21q34 42 78 73t97 48t110 17q99 0 183 -49t132.5 -133t48.5 -183q0 -26 -4 -55h-82l127 -128v128q1 6 0 30v25z" />
  </font>
</defs>
</svg>
